# xmcd CD database file
#
# Track frame offsets:
#	150
#	26232
#	49957
#	72983
#	101590
#	140091
#	161829
#	187661
#	214062
#	243003
#	265233
#	295511
#
# Disc length: 4356 seconds
#
# Revision: 0
# Processed by: cddbd v1.5.1PL0 Copyright (c) Steve Scherf et al.
# Submitted via: CDex 1.51
#
DISCID=af11020c
DTITLE=Misia - Misia Greatest Hits
DYEAR=1900
DGENRE=JPop
TTITLE0=Tsutsumi Komu Youni
TTITLE1=Hino Ataru Basho
TTITLE2=Kiss Shite Dakishimete
TTITLE3=Into The Light
TTITLE4=The Glory Day
TTITLE5=Beleave
TTITLE6=Wasurenai Hibi
TTITLE7=Sweetness
TTITLE8=It's Just Love
TTITLE9=Escape
TTITLE10=Hatenaku Tshuzuku Story
TTITLE11=Everything
EXTD=
EXTT0=
EXTT1=
EXTT2=
EXTT3=
EXTT4=
EXTT5=
EXTT6=
EXTT7=
EXTT8=
EXTT9=
EXTT10=
EXTT11=
PLAYORDER=
